<svg width="1824" height="716" viewBox="0 0 1824 716" fill="none" xmlns="http://www.w3.org/2000/svg">
<path d="M45 0H1824V692H45V0Z" fill="url(#paint0_linear_24_271)" fill-opacity="0.8"/>
<g filter="url(#filter0_f_24_271)">
<path fill-rule="evenodd" clip-rule="evenodd" d="M306.606 189.049C315.647 192.778 325.389 184.174 335.166 183.877C348.42 183.475 366.768 176.153 374.387 186.99C382.578 198.64 360.008 215.839 366.534 228.494C374.918 244.75 406.478 241.365 411.499 258.95C415.5 272.963 394.515 282.097 384.989 293.134C376.77 302.657 371.5 319.22 358.928 319.859C342.772 320.681 332.041 302.441 316.961 296.593C310.512 294.092 302.632 292.518 296.455 295.631C277.246 305.312 266.24 332.852 244.724 333C230.293 333.099 223.537 310.539 223.017 296.136C222.464 280.813 235.843 268.822 241.899 254.732C245.422 246.535 251.913 238.942 251.427 230.035C250.59 214.691 235.401 201.519 238.172 186.403C240.686 172.684 251.221 154.472 265.176 155.012C283.243 155.71 289.895 182.157 306.606 189.049Z" fill="#CFBCDD"/>
</g>
<g filter="url(#filter1_f_24_271)">
<path fill-rule="evenodd" clip-rule="evenodd" d="M227.606 213.049C236.647 216.778 246.389 208.174 256.166 207.877C269.42 207.475 287.768 200.153 295.387 210.99C303.578 222.64 281.008 239.839 287.534 252.494C295.918 268.75 327.478 265.365 332.499 282.95C336.5 296.963 315.515 306.097 305.989 317.134C297.77 326.657 292.5 343.22 279.928 343.859C263.772 344.681 253.041 326.441 237.961 320.593C231.512 318.092 223.632 316.518 217.455 319.631C198.246 329.312 187.24 356.852 165.724 357C151.293 357.099 144.537 334.539 144.017 320.136C143.464 304.813 156.843 292.822 162.899 278.732C166.422 270.535 172.913 262.942 172.427 254.035C171.59 238.691 156.401 225.519 159.172 210.403C161.686 196.684 172.221 178.472 186.176 179.012C204.243 179.71 210.895 206.157 227.606 213.049Z" fill="#CFBCDD"/>
</g>
<g filter="url(#filter2_f_24_271)">
<path fill-rule="evenodd" clip-rule="evenodd" d="M197.606 341.049C206.647 344.778 216.389 336.174 226.166 335.877C239.42 335.475 257.768 328.153 265.387 338.99C273.578 350.64 251.008 367.839 257.534 380.494C265.918 396.75 297.478 393.365 302.499 410.95C306.5 424.963 285.515 434.097 275.989 445.134C267.77 454.657 262.5 471.22 249.928 471.859C233.772 472.681 223.041 454.441 207.961 448.593C201.512 446.092 193.632 444.518 187.455 447.631C168.246 457.312 157.24 484.852 135.724 485C121.293 485.099 114.537 462.539 114.017 448.136C113.464 432.813 126.843 420.822 132.899 406.732C136.422 398.535 142.913 390.942 142.427 382.035C141.59 366.691 126.401 353.519 129.172 338.403C131.686 324.684 142.221 306.472 156.176 307.012C174.243 307.71 180.895 334.157 197.606 341.049Z" fill="#CFBCDD"/>
</g>
<g filter="url(#filter3_f_24_271)">
<path fill-rule="evenodd" clip-rule="evenodd" d="M276.606 458.049C285.647 461.778 295.389 453.174 305.166 452.877C318.42 452.475 336.768 445.153 344.387 455.99C352.578 467.64 330.008 484.839 336.534 497.494C344.918 513.75 376.478 510.365 381.499 527.95C385.5 541.963 364.515 551.097 354.989 562.134C346.77 571.657 341.5 588.22 328.928 588.859C312.772 589.681 302.041 571.441 286.961 565.593C280.512 563.092 272.632 561.518 266.455 564.631C247.246 574.312 236.24 601.852 214.724 602C200.293 602.099 193.537 579.539 193.017 565.136C192.464 549.813 205.843 537.822 211.899 523.732C215.422 515.535 221.913 507.942 221.427 499.035C220.59 483.691 205.401 470.519 208.172 455.403C210.686 441.684 221.221 423.472 235.176 424.012C253.243 424.71 259.895 451.157 276.606 458.049Z" fill="#CFBCDD"/>
</g>
<defs>
<filter id="filter0_f_24_271" x="109" y="41" width="417" height="406" filterUnits="userSpaceOnUse" color-interpolation-filters="sRGB">
<feFlood flood-opacity="0" result="BackgroundImageFix"/>
<feBlend mode="normal" in="SourceGraphic" in2="BackgroundImageFix" result="shape"/>
<feGaussianBlur stdDeviation="57" result="effect1_foregroundBlur_24_271"/>
</filter>
<filter id="filter1_f_24_271" x="30" y="65" width="417" height="406" filterUnits="userSpaceOnUse" color-interpolation-filters="sRGB">
<feFlood flood-opacity="0" result="BackgroundImageFix"/>
<feBlend mode="normal" in="SourceGraphic" in2="BackgroundImageFix" result="shape"/>
<feGaussianBlur stdDeviation="57" result="effect1_foregroundBlur_24_271"/>
</filter>
<filter id="filter2_f_24_271" x="0" y="193" width="417" height="406" filterUnits="userSpaceOnUse" color-interpolation-filters="sRGB">
<feFlood flood-opacity="0" result="BackgroundImageFix"/>
<feBlend mode="normal" in="SourceGraphic" in2="BackgroundImageFix" result="shape"/>
<feGaussianBlur stdDeviation="57" result="effect1_foregroundBlur_24_271"/>
</filter>
<filter id="filter3_f_24_271" x="79" y="310" width="417" height="406" filterUnits="userSpaceOnUse" color-interpolation-filters="sRGB">
<feFlood flood-opacity="0" result="BackgroundImageFix"/>
<feBlend mode="normal" in="SourceGraphic" in2="BackgroundImageFix" result="shape"/>
<feGaussianBlur stdDeviation="57" result="effect1_foregroundBlur_24_271"/>
</filter>
<linearGradient id="paint0_linear_24_271" x1="45" y1="346" x2="1738.2" y2="688.737" gradientUnits="userSpaceOnUse">
<stop offset="0.189164" stop-color="#C39433"/>
<stop offset="0.856245" stop-color="#1E4356"/>
</linearGradient>
</defs>
</svg>
