<svg width="110" height="110" viewBox="0 0 110 110" fill="none" xmlns="http://www.w3.org/2000/svg">
<path d="M92.8125 6.875H17.1875C11.495 6.875 6.875 11.495 6.875 17.1875V92.8125C6.875 98.505 11.495 103.125 17.1875 103.125H92.8125C98.505 103.125 103.125 98.505 103.125 92.8125V17.1875C103.125 11.495 98.505 6.875 92.8125 6.875ZM34.1619 82.6066C33.5921 83.5921 32.6541 84.3109 31.5543 84.6049C30.4545 84.8988 29.283 84.7439 28.2975 84.1741C27.312 83.6043 26.5932 82.6663 26.2992 81.5665C26.0052 80.4667 26.1602 79.2952 26.73 78.3097L29.8031 73.0022C33.2612 71.9503 36.0972 72.765 38.3109 75.4497L34.1619 82.6066ZM64.0028 71.0291H24.9219C22.5569 71.0291 20.625 69.0938 20.625 66.7322C20.625 64.3706 22.5603 62.4353 24.9219 62.4353H35.8806L49.9297 38.115L45.5263 30.5113C44.9595 29.525 44.8063 28.3545 45.1 27.2556C45.3937 26.1567 46.1105 25.2188 47.0938 24.6469C48.08 24.0802 49.2505 23.9269 50.3494 24.2206C51.4482 24.5144 52.3862 25.2312 52.9581 26.2144L54.8694 29.5213L56.7806 26.2144C57.0628 25.7264 57.4383 25.2988 57.8857 24.9559C58.3331 24.613 58.8436 24.3616 59.3882 24.2161C59.9327 24.0705 60.5006 24.0336 61.0594 24.1076C61.6182 24.1815 62.157 24.3647 62.645 24.6469C63.133 24.929 63.5606 25.3045 63.9035 25.7519C64.2464 26.1993 64.4977 26.7099 64.6433 27.2544C64.7889 27.799 64.8257 28.3669 64.7518 28.9257C64.6779 29.4845 64.4946 30.0233 64.2125 30.5113L45.7806 62.4387H59.1216C63.4597 62.4387 65.89 67.5297 63.9994 71.0325L64.0028 71.0291ZM85.0781 71.0291H78.8459L83.0569 78.3131C84.2394 80.3756 83.5278 82.9984 81.4894 84.1775C79.4269 85.36 76.8041 84.6484 75.625 82.61C68.5575 70.3862 63.2706 61.1909 59.7266 55.0894C56.1378 48.8572 58.6953 42.6284 61.2528 40.5247C64.0681 45.4025 68.2791 52.7072 73.9062 62.4387H85.0781C86.2177 62.4387 87.3107 62.8915 88.1165 63.6973C88.9223 64.5031 89.375 65.596 89.375 66.7356C89.375 67.8752 88.9223 68.9682 88.1165 69.774C87.3107 70.5798 86.2177 71.0291 85.0781 71.0291Z" fill="black"/>
</svg>
