<svg width="95" height="94" viewBox="0 0 95 94" fill="none" xmlns="http://www.w3.org/2000/svg">
<path d="M47.5 59.2922C54.2906 59.2922 59.7921 53.7906 59.7921 47C59.7921 40.2093 54.2906 34.7094 47.5 34.7094C40.7093 34.7094 35.2078 40.2093 35.2078 47C35.2078 53.7906 40.7093 59.2922 47.5 59.2922ZM38.2734 43.1765C38.3481 42.9948 38.3494 42.7912 38.2772 42.6086C38.2049 42.4259 38.0647 42.2783 37.8859 42.1969C37.9828 42.0031 38.0828 41.8125 38.1906 41.6265L43.7437 45.275L45.4109 46.0406C45.3865 46.0937 45.3646 46.1479 45.3453 46.2031L43.6109 45.5609L37.1203 44.2187C37.1765 44.0109 37.2328 43.8047 37.3015 43.6015C37.487 43.6699 37.6918 43.6638 37.873 43.5846C38.0541 43.5054 38.1976 43.3592 38.2734 43.1765ZM42.6953 37.389C42.773 37.5755 42.9216 37.7235 43.1084 37.8004C43.2952 37.8773 43.5049 37.8769 43.6914 37.7992C43.8778 37.7215 44.0258 37.5729 44.1027 37.3861C44.1797 37.1993 44.1792 36.9896 44.1015 36.8031C44.3046 36.7344 44.5125 36.6781 44.7203 36.6218L46.064 43.1265L46.7015 44.8468C46.6468 44.8687 46.5937 44.8875 46.539 44.9125L45.7671 43.2328L42.1265 37.6937C42.3126 37.5857 42.5023 37.4841 42.6953 37.389ZM51.3203 37.7718C51.5016 37.8488 51.7059 37.8517 51.8893 37.7799C52.0727 37.708 52.2207 37.5672 52.3015 37.3875C52.4953 37.4843 52.6859 37.5859 52.8734 37.6922L49.2218 43.2437L48.4578 44.9109C48.4062 44.8859 48.3515 44.8672 48.2968 44.8468L48.9406 43.1109L50.2812 36.6234C50.489 36.6781 50.6937 36.7343 50.8968 36.8015C50.8296 36.9867 50.8361 37.1906 50.9149 37.3712C50.9937 37.5518 51.1388 37.6952 51.3203 37.7718ZM56.725 43.1765C56.8004 43.3594 56.944 43.5057 57.1254 43.5844C57.3068 43.6632 57.5118 43.6682 57.6968 43.5984C57.7656 43.8031 57.8234 44.0125 57.8781 44.2203L51.3734 45.5593L49.65 46.2C49.6281 46.1453 49.6109 46.0937 49.5859 46.0406L51.2671 45.2672L56.8062 41.625C56.9125 41.8109 57.014 42 57.1093 42.1922C56.9321 42.2766 56.7937 42.4254 56.7223 42.6083C56.6509 42.7911 56.6518 42.9943 56.725 43.1765ZM56.725 50.8203C56.5687 51.2015 56.7421 51.6328 57.1125 51.8015C57.0165 51.9951 56.9149 52.1858 56.8078 52.3734L51.2562 48.7219L49.5874 47.9578C49.6124 47.9047 49.6312 47.8515 49.6515 47.7953L51.389 48.439L57.8781 49.7812C57.8246 49.9877 57.7647 50.1925 57.6984 50.3953C57.5125 50.3285 57.3082 50.3352 57.1272 50.4143C56.9462 50.4933 56.8023 50.6386 56.725 50.8203ZM51.6296 47.3843L58.2546 47L51.614 46.6125L49.7796 46.7843C49.775 46.7281 49.7734 46.6703 49.7625 46.6156L51.589 46.3047L57.8781 44.2203C57.9328 44.4265 57.9937 44.6328 58.0375 44.8422C57.8418 44.8742 57.6663 44.9808 57.5477 45.1396C57.4291 45.2984 57.3767 45.4971 57.4015 45.6937C57.4266 45.8882 57.526 46.0654 57.679 46.188C57.832 46.3107 58.0266 46.3693 58.2218 46.3515C58.2359 46.5672 58.2546 46.7812 58.2546 47C58.2546 47.2172 58.2359 47.4281 58.2218 47.6422C58.0264 47.6268 57.8324 47.6866 57.6797 47.8095C57.5269 47.9323 57.4268 48.1089 57.3999 48.3031C57.3735 48.5003 57.4255 48.6999 57.5447 48.8592C57.6639 49.0184 57.8408 49.1245 58.0375 49.1547C57.9953 49.3687 57.9343 49.575 57.8781 49.7812L51.5734 47.689L49.7625 47.3828C49.7734 47.3265 49.775 47.2703 49.7796 47.2125L51.6296 47.3843ZM52.3062 56.6125C52.2238 56.4337 52.0756 56.2937 51.8926 56.2215C51.7095 56.1493 51.5056 56.1506 51.3234 56.225C51.1407 56.301 50.9945 56.4449 50.9156 56.6264C50.8366 56.8079 50.831 57.0129 50.9 57.1984C50.6968 57.2656 50.4875 57.3234 50.2796 57.3797L48.9374 50.8734L48.2984 49.1484C48.3531 49.1281 48.4062 49.1093 48.4593 49.0843L49.2328 50.764L52.8734 56.3078C52.6875 56.4156 52.4984 56.5172 52.3062 56.6125ZM43.6796 56.2281C43.4977 56.1522 43.2935 56.1498 43.1098 56.2215C42.9262 56.2932 42.7776 56.4334 42.6953 56.6125C42.5026 56.5168 42.3129 56.4152 42.1265 56.3078L45.7781 50.7531L46.5421 49.0875C46.5953 49.1125 46.6484 49.1312 46.7046 49.1515L46.0625 50.889L44.7187 57.3781C44.5116 57.3248 44.3063 57.2649 44.1031 57.1984C44.1711 57.0133 44.165 56.809 44.0861 56.6283C44.0072 56.4475 43.8616 56.3042 43.6796 56.2281ZM38.2734 50.8234C38.1976 50.6408 38.0541 50.4947 37.8728 50.4157C37.6916 50.3368 37.4868 50.3311 37.3015 50.4C37.2347 50.1956 37.1743 49.9893 37.1203 49.7812L43.625 48.439L45.3468 47.8015C45.3671 47.8547 45.3875 47.9094 45.4125 47.9625L43.7343 48.7344L38.1906 52.3734C38.0837 52.1881 37.9826 51.9994 37.8875 51.8078C38.0658 51.7245 38.2052 51.5759 38.2771 51.3927C38.3489 51.2095 38.3476 51.0057 38.2734 50.8234ZM36.9609 44.8437C37.0031 44.6312 37.064 44.425 37.1203 44.2187L43.425 46.3078L45.2343 46.6156C45.225 46.6703 45.2218 46.7297 45.2156 46.7875L43.3703 46.6156L36.7468 47L43.3875 47.3843L45.2187 47.214C45.225 47.2719 45.2281 47.3297 45.2375 47.3875L43.4156 47.6984L37.1218 49.7781C37.0671 49.5718 37.0062 49.3687 36.9625 49.1593C37.1632 49.1351 37.3462 49.0321 37.471 48.873C37.5958 48.7139 37.6523 48.5117 37.6281 48.3109C37.6038 48.1101 37.5008 47.9272 37.3417 47.8024C37.1826 47.6776 36.9804 47.621 36.7796 47.6453C36.7671 47.4297 36.7468 47.2187 36.7468 47C36.7468 46.7812 36.7671 46.5703 36.7796 46.3547C36.9787 46.3762 37.1783 46.3183 37.335 46.1937C37.4918 46.069 37.5931 45.8876 37.6169 45.6888C37.6408 45.4899 37.5853 45.2897 37.4625 45.1315C37.3397 44.9733 37.1594 44.8699 36.9609 44.8437ZM39.4593 54.1281C39.6096 54.0017 39.7055 53.8224 39.7273 53.6273C39.7491 53.4322 39.6951 53.2361 39.5765 53.0797C39.4554 52.9232 39.2784 52.8197 39.0827 52.7909C38.8869 52.762 38.6876 52.8101 38.5265 52.925C38.4085 52.7443 38.2965 52.5614 38.1906 52.3734L44.1296 49.389L45.6234 48.3281C45.6562 48.375 45.6984 48.4187 45.7343 48.464L44.3093 49.6468L39.8937 54.6047L44.8609 50.1812L46.0359 48.7656C46.0796 48.8015 46.1218 48.8422 46.1687 48.875L45.1015 50.3812L42.1234 56.3078C41.9363 56.2017 41.7524 56.0902 41.5718 55.9734C41.6818 55.813 41.7263 55.6166 41.6962 55.4244C41.6662 55.2323 41.5638 55.0589 41.4101 54.9397C41.2564 54.8205 41.063 54.7646 40.8694 54.7834C40.6758 54.8021 40.4967 54.8941 40.3687 55.0406C40.0482 54.7542 39.7446 54.4496 39.4593 54.1281ZM46.8562 57.7234C46.8721 57.528 46.8126 57.3338 46.69 57.1808C46.5675 57.0277 46.391 56.9272 46.1968 56.9C45.9992 56.8743 45.7994 56.9267 45.6398 57.0461C45.4802 57.1654 45.3734 57.3422 45.3421 57.539C45.1296 57.4968 44.925 57.4359 44.7187 57.3781L46.8078 51.0718L47.1156 49.2625C47.1718 49.2719 47.2296 49.275 47.2875 49.2797L47.1156 51.1297L47.4984 57.7531L47.8859 51.114L47.714 49.2797C47.7718 49.2734 47.8296 49.2718 47.8859 49.2609L48.1968 51.0875L50.2796 57.3797C50.0718 57.4344 49.8671 57.4953 49.6578 57.539C49.6257 57.3426 49.5188 57.1662 49.3594 57.047C49.2 56.9279 49.0006 56.8751 48.8031 56.9C48.6088 56.9265 48.4322 57.0269 48.31 57.1802C48.1878 57.3336 48.1294 57.5281 48.1468 57.7234C47.9312 57.7359 47.7187 57.7562 47.5 57.7562C47.2828 57.7562 47.0703 57.7359 46.8562 57.7234ZM54.6296 55.039C54.4992 54.8999 54.3216 54.8145 54.1315 54.7994C53.9414 54.7844 53.7525 54.8408 53.6018 54.9577C53.4511 55.0745 53.3495 55.2434 53.3168 55.4313C53.2841 55.6192 53.3226 55.8125 53.425 55.9734C53.2438 56.091 53.0593 56.2036 52.8718 56.3109L49.8906 50.3719L48.8265 48.875C48.8734 48.8422 48.9171 48.8015 48.9609 48.764L50.1468 50.1922L55.1031 54.6062L50.6812 49.6359L49.2624 48.4625C49.2984 48.4187 49.3406 48.375 49.3718 48.3281L50.8828 49.3984L56.8062 52.375C56.7007 52.561 56.5897 52.7439 56.4734 52.9234C56.3114 52.8103 56.1124 52.7633 55.9169 52.7921C55.7215 52.8208 55.5444 52.9231 55.4218 53.0781C55.3027 53.2347 55.2485 53.4311 55.2703 53.6266C55.2921 53.822 55.3883 54.0016 55.539 54.1281C55.2562 54.45 54.9531 54.7531 54.6296 55.039ZM55.539 39.8718C55.3896 39.9992 55.2944 40.1788 55.2729 40.3739C55.2514 40.5691 55.3052 40.7651 55.4234 40.9219C55.5445 41.0785 55.7218 41.1819 55.9177 41.2102C56.1137 41.2385 56.3129 41.1894 56.4734 41.0734C56.5921 41.2531 56.7015 41.439 56.8093 41.6265L50.8703 44.6093L49.375 45.6703C49.3421 45.625 49.3015 45.5812 49.2656 45.5359L50.6937 44.35L55.1062 39.3953L50.1375 43.8156L48.9625 45.2344C48.9187 45.1984 48.8765 45.1578 48.8296 45.125L49.9 43.6156L52.8749 37.6937C53.0609 37.8 53.2437 37.9093 53.4234 38.0265C53.3051 38.1867 53.2542 38.3868 53.2815 38.584C53.3088 38.7812 53.4121 38.96 53.5695 39.082C53.7268 39.204 53.9256 39.2597 54.1234 39.2371C54.3212 39.2144 54.5024 39.1153 54.6281 38.9609C54.95 39.2453 55.2515 39.5484 55.539 39.8718ZM48.1437 36.2781C48.1193 36.4785 48.1754 36.6803 48.2998 36.8393C48.4242 36.9983 48.6066 37.1013 48.807 37.1258C49.0073 37.1502 49.2092 37.0941 49.3682 36.9697C49.5271 36.8453 49.6302 36.6628 49.6546 36.4625C49.8687 36.5047 50.0734 36.5672 50.2812 36.6234L48.1921 42.925L47.8843 44.7359C47.8281 44.725 47.7703 44.7234 47.714 44.7172L47.8843 42.8703L47.5 36.2453L47.1156 42.8859L47.2859 44.7172C47.2281 44.7234 47.1703 44.725 47.114 44.7359L46.8031 42.9125L44.7203 36.6218C44.9281 36.5672 45.1328 36.5062 45.3421 36.4625C45.3745 36.6584 45.4817 36.8341 45.6412 36.9525C45.8007 37.0708 45.9999 37.1226 46.1968 37.0969C46.3909 37.0729 46.5678 36.974 46.6899 36.8213C46.8119 36.6686 46.8694 36.4742 46.85 36.2797C47.0671 36.2656 47.2796 36.2453 47.5 36.2453C47.7171 36.2437 47.9296 36.2656 48.1437 36.2781ZM40.3718 38.9609C40.4985 39.1114 40.6782 39.2073 40.8737 39.2288C41.0692 39.2503 41.2655 39.1958 41.4218 39.0765C41.5783 38.9554 41.6818 38.7784 41.7106 38.5827C41.7395 38.3869 41.6914 38.1876 41.5765 38.0265C41.7566 37.9085 41.9406 37.7965 42.1281 37.6906L45.1125 43.6281L46.1718 45.1218C46.125 45.1562 46.0828 45.1968 46.0375 45.2328L44.8531 43.8078L39.8984 39.3937L44.3234 44.3609L45.7375 45.5343C45.7015 45.5797 45.6593 45.6234 45.6265 45.6703L44.1187 44.6015L38.1953 41.625C38.3031 41.439 38.4109 41.2531 38.5296 41.0734C38.8671 41.3078 39.3281 41.2453 39.5796 40.9187C39.699 40.7626 39.7535 40.5663 39.7316 40.371C39.7098 40.1756 39.6134 39.9962 39.4625 39.8703C39.7465 39.5487 40.0502 39.245 40.3718 38.9609Z" fill="#D2F1DB"/>
<path d="M47.5 0.125C21.6125 0.125 0.625 21.1125 0.625 47C0.625 72.8875 21.6125 93.875 47.5 93.875C73.3875 93.875 94.375 72.8875 94.375 47C94.375 21.1125 73.3875 0.125 47.5 0.125ZM6.54219 31.6359H88.4578C90.2578 36.4203 91.25 41.5953 91.25 47C91.25 52.4047 90.2578 57.5797 88.4578 62.3641H6.54219C4.74219 57.5797 3.75 52.4047 3.75 47C3.75 41.5953 4.74219 36.4203 6.54219 31.6359Z" fill="#D2F1DB"/>
</svg>
