<svg width="110" height="110" viewBox="0 0 110 110" fill="none" xmlns="http://www.w3.org/2000/svg">
<path d="M1.33035 16.0982L41.3887 55.3819L1.62826 95.0278C0.979407 94.1796 0.474602 93.2304 0.134097 92.2182C-0.0446991 91.0716 -0.0446991 89.9043 0.134097 88.7578V21.2911C0.0149307 19.4807 0.432014 17.6703 1.32576 16.0982M58.6449 38.2494L45.5687 51.2019L5.98701 12.2757C7.27035 11.8311 8.64535 11.7074 9.98826 11.9182C12.0966 12.4957 14.1087 13.3849 15.9558 14.5444L51.7791 34.3674C54.1074 35.6186 56.3762 36.934 58.6449 38.2494ZM45.5733 59.6215L58.5853 72.3999L49.1528 77.6524L20.3741 93.6482C17.9908 94.9636 15.5983 96.2194 13.2699 97.654C12.2739 98.2748 11.1567 98.6757 9.99317 98.8299C8.82964 98.984 7.64661 98.8878 6.52326 98.5478L45.5733 59.6215ZM79.3066 55.3819C79.3426 56.9851 78.9387 58.5675 78.1387 59.9572C77.3388 61.347 76.1734 62.4911 74.7691 63.2653L64.0166 69.2328L49.8678 55.3819L64.0762 41.2928C67.7199 43.3232 71.3041 45.3536 74.8837 47.2649C76.312 48.0619 77.4852 49.2475 78.2672 50.6842C79.0492 52.1208 79.4126 53.7497 79.3066 55.3819Z" fill="white"/>
</svg>
