<svg width="65" height="90" viewBox="0 0 65 90" fill="none" xmlns="http://www.w3.org/2000/svg">
<path d="M57.4598 0.357147C59.6098 0.357147 61.3062 1.04108 62.5491 2.41072C63.7009 3.67858 64.3205 5.37143 64.4027 7.48393L64.4116 7.97858V82.0214C64.4116 84.3375 63.7902 86.1875 62.5473 87.5696C61.3937 88.8536 59.8509 89.5411 57.9134 89.6321L57.4598 89.6429H7.54016C5.39016 89.6429 3.69374 88.9518 2.45088 87.5714C1.29909 86.2857 0.679451 84.6 0.597308 82.5107L0.588379 82.0214V7.97858C0.588379 5.63393 1.20981 3.77679 2.45266 2.40893C3.60624 1.13929 5.14909 0.458933 7.08659 0.367862L7.54016 0.357147H57.4598ZM44.1848 66.1071H21.192C20.2437 66.1071 19.4759 66.3929 18.8884 66.9643C18.3687 67.475 18.0794 68.1429 18.0205 68.9714L18.0098 69.2893V82.9H47.3669V69.2893C47.3669 68.3125 47.0812 67.5393 46.5098 66.9661C45.9991 66.4571 45.3312 66.1732 44.5027 66.1179L44.1848 66.1071ZM26.7205 47.0946H18.3455C17.2812 47.0946 16.7134 47.6125 16.6366 48.6482L16.6277 48.8946V57.0196C16.6277 58.1339 17.1223 58.7304 18.1098 58.8107L18.3455 58.8196H26.7205C27.842 58.8196 28.4384 58.2964 28.5134 57.2518L28.5223 57.0196V48.8946C28.5223 47.775 27.9991 47.1768 26.9527 47.1018L26.7205 47.0946ZM46.9491 47.0946H38.6152C37.5259 47.0946 36.942 47.6125 36.8652 48.6482L36.8562 48.8946V57.0196C36.8562 58.1339 37.3616 58.7304 38.3723 58.8107L38.6152 58.8196H46.9491C48.0687 58.8196 48.667 58.2964 48.7402 57.2518L48.7491 57.0196V48.8946C48.7491 47.775 48.2259 47.1768 47.1794 47.1018L46.9491 47.0946ZM26.7205 30.0071H18.3455C17.2812 30.0071 16.7134 30.525 16.6366 31.5607L16.6277 31.8089V39.9339C16.6277 41.0482 17.1223 41.6446 18.1098 41.725L18.3455 41.7339H26.7205C27.842 41.7339 28.4384 41.2107 28.5134 40.1643L28.5223 39.9321V31.8071C28.5223 30.6875 27.9991 30.0893 26.9527 30.0161L26.7205 30.0071ZM46.9491 30.0071H38.6152C37.5259 30.0071 36.942 30.525 36.8652 31.5607L36.8562 31.8089V39.9339C36.8562 41.0482 37.3616 41.6446 38.3723 41.725L38.6152 41.7339H46.9491C48.0687 41.7339 48.667 41.2107 48.7402 40.1643L48.7491 39.9321V31.8071C48.7491 30.6875 48.2259 30.0893 47.1794 30.0161L46.9491 30.0071ZM26.7205 12.9214H18.3455C17.2812 12.9214 16.7134 13.4393 16.6366 14.475L16.6277 14.7214V22.8464C16.6277 23.9607 17.1223 24.5589 18.1098 24.6375L18.3455 24.6464H26.7205C27.842 24.6464 28.4384 24.1232 28.5134 23.0786L28.5223 22.8464V14.7214C28.5223 13.6018 27.9991 13.0036 26.9527 12.9286L26.7205 12.9214ZM46.9491 12.9214H38.6152C37.5259 12.9214 36.942 13.4393 36.8652 14.475L36.8562 14.7214V22.8464C36.8562 23.9607 37.3616 24.5589 38.3723 24.6375L38.6152 24.6464H46.9491C48.0687 24.6464 48.667 24.1232 48.7402 23.0786L48.7491 22.8464V14.7214C48.7491 13.6018 48.2259 13.0036 47.1794 12.9286L46.9491 12.9214Z" fill="#D2F1DB"/>
</svg>
