<svg width="97" height="94" viewBox="0 0 97 94" fill="none" xmlns="http://www.w3.org/2000/svg">
<path d="M84.348 24H74.5V13.548C74.5 6.076 68.604 0 61.112 0H35.89C28.394 0 22.5 6.076 22.5 13.548V24H12.65C5.938 24 0.5 29.182 0.5 35.874V81.888C0.5 88.578 5.938 94 12.65 94H84.348C91.058 94 96.5 88.578 96.5 81.886V35.874C96.5 29.182 91.058 24 84.348 24ZM30.5 13.548C30.5 10.75 33.084 8 35.89 8H61.112C63.91 8 66.5 10.75 66.5 13.548V24H30.5V13.548ZM70.5 68H56.5V82H40.5V68H26.5V52H40.5V38H56.5V52H70.5V68Z" fill="#D2F1DB"/>
</svg>
